<mxfile>
    <diagram id="z19l9lu9-NIdwZZjfTMZ" name="Page-1">
        <mxGraphModel dx="1421" dy="790" grid="1" gridSize="10" guides="1" tooltips="1" connect="1" arrows="1" fold="1" page="1" pageScale="1" pageWidth="827" pageHeight="1169" math="0" shadow="0">
            <root>
                <mxCell id="0"/>
                <mxCell id="1" parent="0"/>
                <mxCell id="2" value="&lt;div class=&quot;highlight highlight-text-html-basic&quot; style=&quot;font-size: 21px&quot;&gt;&lt;pre&gt;&lt;span class=&quot;pl-kos&quot; style=&quot;color: rgb(153 , 204 , 255)&quot;&gt;&amp;lt;&lt;/span&gt;&lt;span class=&quot;pl-ent&quot; style=&quot;color: rgb(153 , 204 , 255)&quot;&gt;form&lt;/span&gt;&lt;font color=&quot;#99ccff&quot;&gt; &lt;/font&gt;&lt;span class=&quot;pl-c1&quot; style=&quot;color: rgb(153 , 204 , 255)&quot;&gt;action&lt;/span&gt;&lt;font color=&quot;#99ccff&quot;&gt;=&quot;&lt;/font&gt;&lt;span class=&quot;pl-s&quot; style=&quot;color: rgb(153 , 204 , 255)&quot;&gt;/profile&lt;/span&gt;&lt;font color=&quot;#99ccff&quot;&gt;&quot; &lt;/font&gt;&lt;span class=&quot;pl-c1&quot; style=&quot;color: rgb(153 , 204 , 255)&quot;&gt;method&lt;/span&gt;&lt;font color=&quot;#99ccff&quot;&gt;=&quot;&lt;/font&gt;&lt;span class=&quot;pl-s&quot;&gt;&lt;font color=&quot;#ff9999&quot;&gt;post&lt;/font&gt;&lt;/span&gt;&lt;font color=&quot;#99ccff&quot;&gt;&quot; &lt;/font&gt;&lt;span class=&quot;pl-c1&quot; style=&quot;color: rgb(153 , 204 , 255)&quot;&gt;enctype&lt;/span&gt;&lt;font color=&quot;#99ccff&quot;&gt;=&quot;&lt;/font&gt;&lt;span class=&quot;pl-s&quot;&gt;&lt;font color=&quot;#ffff99&quot;&gt;multipart/form-data&lt;/font&gt;&lt;/span&gt;&lt;font color=&quot;#99ccff&quot;&gt;&quot;&lt;/font&gt;&lt;span class=&quot;pl-kos&quot; style=&quot;color: rgb(153 , 204 , 255)&quot;&gt;&amp;gt;&lt;/span&gt;&lt;font color=&quot;#99ccff&quot;&gt;&lt;br&gt;  &lt;/font&gt;&lt;span class=&quot;pl-kos&quot; style=&quot;color: rgb(153 , 204 , 255)&quot;&gt;&amp;lt;&lt;/span&gt;&lt;span class=&quot;pl-ent&quot; style=&quot;color: rgb(153 , 204 , 255)&quot;&gt;input&lt;/span&gt;&lt;font color=&quot;#99ccff&quot;&gt; &lt;/font&gt;&lt;span class=&quot;pl-c1&quot; style=&quot;color: rgb(153 , 204 , 255)&quot;&gt;type&lt;/span&gt;&lt;font color=&quot;#99ccff&quot;&gt;=&quot;&lt;/font&gt;&lt;span class=&quot;pl-s&quot; style=&quot;color: rgb(153 , 204 , 255)&quot;&gt;file&lt;/span&gt;&lt;font color=&quot;#99ccff&quot;&gt;&quot; &lt;/font&gt;&lt;span class=&quot;pl-c1&quot; style=&quot;color: rgb(153 , 204 , 255)&quot;&gt;name&lt;/span&gt;&lt;font color=&quot;#99ccff&quot;&gt;=&quot;&lt;/font&gt;&lt;span class=&quot;pl-s&quot; style=&quot;color: rgb(153 , 204 , 255)&quot;&gt;avatar&lt;/span&gt;&lt;font color=&quot;#99ccff&quot;&gt;&quot; /&amp;gt;&lt;br&gt;&lt;/font&gt;&lt;span class=&quot;pl-kos&quot; style=&quot;color: rgb(153 , 204 , 255)&quot;&gt;&amp;lt;/&lt;/span&gt;&lt;span class=&quot;pl-ent&quot; style=&quot;color: rgb(153 , 204 , 255)&quot;&gt;form&lt;/span&gt;&lt;span class=&quot;pl-kos&quot; style=&quot;color: rgb(153 , 204 , 255)&quot;&gt;&amp;gt;&lt;/span&gt;&lt;/pre&gt;&lt;/div&gt;" style="rounded=0;whiteSpace=wrap;html=1;align=left;" vertex="1" parent="1">
                    <mxGeometry x="490" y="30" width="940" height="200" as="geometry"/>
                </mxCell>
            </root>
        </mxGraphModel>
    </diagram>
</mxfile>